<svg xmlns="http://www.w3.org/2000/svg" xmlns:xlink="http://www.w3.org/1999/xlink" width="1920" zoomAndPan="magnify" viewBox="0 0 1440 809.999993" height="1080" preserveAspectRatio="xMidYMid meet" version="1.0"><defs><g/></defs><path fill="#1b4189" d="M 1045.304688 427.234375 C 1065 311.023438 1017.261719 188.679688 913.226562 118.503906 C 809.195312 48.332031 677.9375 49.9375 577.667969 111.785156 C 398.464844 26 254.386719 -0.601562 216.675781 55.382812 C 169.792969 124.957031 302.679688 299.113281 522.625 467.839844 C 522.964844 468.097656 523.296875 468.355469 523.640625 468.613281 C 530.910156 474.179688 538.289062 479.734375 545.738281 485.292969 C 546.757812 486.050781 547.773438 486.824219 548.804688 487.597656 C 555.496094 492.550781 562.285156 497.507812 569.125 502.449219 C 570.9375 503.761719 572.714844 505.085938 574.542969 506.398438 C 581.015625 511.046875 587.582031 515.667969 594.175781 520.292969 C 596.347656 521.8125 598.46875 523.347656 600.648438 524.867188 C 609.386719 530.960938 618.238281 537.019531 627.183594 543.054688 C 636.15625 549.101562 645.117188 555.046875 654.050781 560.886719 C 655.816406 562.039062 657.554688 563.128906 659.308594 564.269531 C 666.566406 568.980469 673.808594 573.652344 681.039062 578.226562 C 682.484375 579.132812 683.90625 580.015625 685.355469 580.914062 C 692.929688 585.683594 700.492188 590.378906 708.027344 594.992188 C 708.984375 595.566406 709.929688 596.132812 710.882812 596.707031 C 718.9375 601.613281 726.976562 606.445312 734.980469 611.179688 C 735.359375 611.402344 735.742188 611.609375 736.109375 611.828125 C 974.902344 752.570312 1186.085938 810.492188 1232.964844 740.917969 C 1270.679688 684.933594 1191.992188 561.277344 1045.304688 427.234375 Z M 383.609375 147.644531 C 398.195312 125.984375 448.925781 131.652344 519.511719 158.253906 C 506.480469 171.558594 494.410156 186.152344 483.625 202.167969 C 468.328125 224.882812 456.546875 248.894531 447.957031 273.59375 C 394.347656 216.308594 368.679688 169.804688 383.609375 147.644531 Z M 1084.855469 620.695312 C 1069.929688 642.855469 1017.214844 636.46875 944.054688 608.25 C 963.714844 591.019531 981.546875 571.078125 996.84375 548.363281 C 1007.628906 532.359375 1016.625 515.695312 1024.066406 498.597656 C 1075.175781 554.105469 1099.453125 599.039062 1084.855469 620.695312 Z M 1084.855469 620.695312 " fill-opacity="1" fill-rule="nonzero"/><path fill="#1b4189" d="M 433.921875 419.582031 C 445.996094 503 491.871094 581.207031 567.226562 632.027344 C 642.578125 682.863281 732.234375 696.082031 814.046875 675.992188 C 750.753906 643.140625 684.117188 603.648438 616.890625 558.296875 C 549.671875 512.972656 488.097656 465.964844 433.921875 419.582031 Z M 433.921875 419.582031 " fill-opacity="1" fill-rule="nonzero"/><g fill="#ff914d" fill-opacity="0.302"><g transform="translate(709.726483, 474.329737)"><g><path d="M 168.660156 -4.851562 L 168.273438 -5.046875 C 165.167969 -8.347656 163.808594 -12.226562 163.808594 -16.886719 L 163.808594 -176.035156 C 163.808594 -180.5 165.167969 -184.382812 168.273438 -187.875 L 168.660156 -188.070312 C 169.242188 -189.039062 169.242188 -190.011719 168.660156 -191.175781 C 168.078125 -192.339844 167.304688 -192.921875 166.136719 -192.921875 L 123.050781 -192.921875 C 121.886719 -192.921875 120.917969 -192.339844 120.335938 -191.175781 C 119.75 -190.011719 119.75 -189.039062 120.527344 -188.070312 L 120.722656 -188.070312 C 123.828125 -184.578125 125.378906 -180.5 125.378906 -176.230469 L 125.378906 -122.082031 C 125.378906 -120.140625 124.605469 -118.585938 123.4375 -117.421875 C 122.082031 -116.257812 120.527344 -115.675781 118.78125 -115.675781 L 73.753906 -115.675781 C 71.8125 -115.675781 70.257812 -116.257812 69.09375 -117.421875 C 67.738281 -118.585938 67.152344 -120.140625 67.152344 -122.082031 L 67.152344 -176.425781 C 67.152344 -180.695312 68.707031 -184.578125 71.8125 -188.070312 C 72.394531 -189.039062 72.394531 -190.011719 72.007812 -191.175781 C 71.425781 -192.339844 70.453125 -192.921875 69.289062 -192.921875 L 26.394531 -192.921875 C 25.039062 -192.921875 24.066406 -192.339844 23.679688 -191.175781 C 23.097656 -190.011719 23.097656 -189.039062 23.871094 -188.070312 L 24.261719 -187.683594 C 27.171875 -184.382812 28.726562 -180.5 28.726562 -176.035156 L 28.726562 -17.078125 C 28.726562 -12.421875 27.171875 -8.347656 24.261719 -5.242188 L 23.871094 -4.851562 C 23.097656 -3.6875 23.097656 -2.71875 23.679688 -1.550781 C 24.066406 -0.386719 25.039062 0 26.394531 0 L 69.289062 0 C 70.453125 0 71.425781 -0.386719 72.007812 -1.550781 C 72.394531 -2.71875 72.394531 -3.6875 71.8125 -4.851562 C 68.707031 -8.347656 67.152344 -12.226562 67.152344 -16.691406 L 67.152344 -70.84375 C 67.152344 -72.589844 67.738281 -74.140625 69.09375 -75.304688 C 70.257812 -76.46875 71.8125 -77.246094 73.753906 -77.246094 L 118.78125 -77.246094 C 120.527344 -77.246094 122.082031 -76.46875 123.4375 -75.304688 C 124.605469 -74.140625 125.378906 -72.589844 125.378906 -70.84375 L 125.378906 -16.691406 C 125.378906 -12.226562 123.828125 -8.347656 120.722656 -5.046875 L 120.527344 -4.851562 C 119.75 -3.6875 119.75 -2.71875 120.335938 -1.550781 C 120.917969 -0.386719 121.886719 0 123.050781 0 L 166.136719 0 C 167.304688 0 168.078125 -0.386719 168.660156 -1.550781 C 169.242188 -2.71875 169.242188 -3.6875 168.660156 -4.851562 Z M 168.660156 -4.851562 "/></g></g></g><g fill="#ff914d" fill-opacity="0.502"><g transform="translate(714.863226, 476.510156)"><g><path d="M 168.660156 -4.851562 L 168.273438 -5.046875 C 165.167969 -8.347656 163.808594 -12.226562 163.808594 -16.886719 L 163.808594 -176.035156 C 163.808594 -180.5 165.167969 -184.382812 168.273438 -187.875 L 168.660156 -188.070312 C 169.242188 -189.039062 169.242188 -190.011719 168.660156 -191.175781 C 168.078125 -192.339844 167.304688 -192.921875 166.136719 -192.921875 L 123.050781 -192.921875 C 121.886719 -192.921875 120.917969 -192.339844 120.335938 -191.175781 C 119.75 -190.011719 119.75 -189.039062 120.527344 -188.070312 L 120.722656 -188.070312 C 123.828125 -184.578125 125.378906 -180.5 125.378906 -176.230469 L 125.378906 -122.082031 C 125.378906 -120.140625 124.605469 -118.585938 123.4375 -117.421875 C 122.082031 -116.257812 120.527344 -115.675781 118.78125 -115.675781 L 73.753906 -115.675781 C 71.8125 -115.675781 70.257812 -116.257812 69.09375 -117.421875 C 67.738281 -118.585938 67.152344 -120.140625 67.152344 -122.082031 L 67.152344 -176.425781 C 67.152344 -180.695312 68.707031 -184.578125 71.8125 -188.070312 C 72.394531 -189.039062 72.394531 -190.011719 72.007812 -191.175781 C 71.425781 -192.339844 70.453125 -192.921875 69.289062 -192.921875 L 26.394531 -192.921875 C 25.039062 -192.921875 24.066406 -192.339844 23.679688 -191.175781 C 23.097656 -190.011719 23.097656 -189.039062 23.871094 -188.070312 L 24.261719 -187.683594 C 27.171875 -184.382812 28.726562 -180.5 28.726562 -176.035156 L 28.726562 -17.078125 C 28.726562 -12.421875 27.171875 -8.347656 24.261719 -5.242188 L 23.871094 -4.851562 C 23.097656 -3.6875 23.097656 -2.71875 23.679688 -1.550781 C 24.066406 -0.386719 25.039062 0 26.394531 0 L 69.289062 0 C 70.453125 0 71.425781 -0.386719 72.007812 -1.550781 C 72.394531 -2.71875 72.394531 -3.6875 71.8125 -4.851562 C 68.707031 -8.347656 67.152344 -12.226562 67.152344 -16.691406 L 67.152344 -70.84375 C 67.152344 -72.589844 67.738281 -74.140625 69.09375 -75.304688 C 70.257812 -76.46875 71.8125 -77.246094 73.753906 -77.246094 L 118.78125 -77.246094 C 120.527344 -77.246094 122.082031 -76.46875 123.4375 -75.304688 C 124.605469 -74.140625 125.378906 -72.589844 125.378906 -70.84375 L 125.378906 -16.691406 C 125.378906 -12.226562 123.828125 -8.347656 120.722656 -5.046875 L 120.527344 -4.851562 C 119.75 -3.6875 119.75 -2.71875 120.335938 -1.550781 C 120.917969 -0.386719 121.886719 0 123.050781 0 L 166.136719 0 C 167.304688 0 168.078125 -0.386719 168.660156 -1.550781 C 169.242188 -2.71875 169.242188 -3.6875 168.660156 -4.851562 Z M 168.660156 -4.851562 "/></g></g></g><g fill="#fffaef" fill-opacity="1"><g transform="translate(719.99997, 478.690575)"><g><path d="M 168.660156 -4.851562 L 168.273438 -5.046875 C 165.167969 -8.347656 163.808594 -12.226562 163.808594 -16.886719 L 163.808594 -176.035156 C 163.808594 -180.5 165.167969 -184.382812 168.273438 -187.875 L 168.660156 -188.070312 C 169.242188 -189.039062 169.242188 -190.011719 168.660156 -191.175781 C 168.078125 -192.339844 167.304688 -192.921875 166.136719 -192.921875 L 123.050781 -192.921875 C 121.886719 -192.921875 120.917969 -192.339844 120.335938 -191.175781 C 119.75 -190.011719 119.75 -189.039062 120.527344 -188.070312 L 120.722656 -188.070312 C 123.828125 -184.578125 125.378906 -180.5 125.378906 -176.230469 L 125.378906 -122.082031 C 125.378906 -120.140625 124.605469 -118.585938 123.4375 -117.421875 C 122.082031 -116.257812 120.527344 -115.675781 118.78125 -115.675781 L 73.753906 -115.675781 C 71.8125 -115.675781 70.257812 -116.257812 69.09375 -117.421875 C 67.738281 -118.585938 67.152344 -120.140625 67.152344 -122.082031 L 67.152344 -176.425781 C 67.152344 -180.695312 68.707031 -184.578125 71.8125 -188.070312 C 72.394531 -189.039062 72.394531 -190.011719 72.007812 -191.175781 C 71.425781 -192.339844 70.453125 -192.921875 69.289062 -192.921875 L 26.394531 -192.921875 C 25.039062 -192.921875 24.066406 -192.339844 23.679688 -191.175781 C 23.097656 -190.011719 23.097656 -189.039062 23.871094 -188.070312 L 24.261719 -187.683594 C 27.171875 -184.382812 28.726562 -180.5 28.726562 -176.035156 L 28.726562 -17.078125 C 28.726562 -12.421875 27.171875 -8.347656 24.261719 -5.242188 L 23.871094 -4.851562 C 23.097656 -3.6875 23.097656 -2.71875 23.679688 -1.550781 C 24.066406 -0.386719 25.039062 0 26.394531 0 L 69.289062 0 C 70.453125 0 71.425781 -0.386719 72.007812 -1.550781 C 72.394531 -2.71875 72.394531 -3.6875 71.8125 -4.851562 C 68.707031 -8.347656 67.152344 -12.226562 67.152344 -16.691406 L 67.152344 -70.84375 C 67.152344 -72.589844 67.738281 -74.140625 69.09375 -75.304688 C 70.257812 -76.46875 71.8125 -77.246094 73.753906 -77.246094 L 118.78125 -77.246094 C 120.527344 -77.246094 122.082031 -76.46875 123.4375 -75.304688 C 124.605469 -74.140625 125.378906 -72.589844 125.378906 -70.84375 L 125.378906 -16.691406 C 125.378906 -12.226562 123.828125 -8.347656 120.722656 -5.046875 L 120.527344 -4.851562 C 119.75 -3.6875 119.75 -2.71875 120.335938 -1.550781 C 120.917969 -0.386719 121.886719 0 123.050781 0 L 166.136719 0 C 167.304688 0 168.078125 -0.386719 168.660156 -1.550781 C 169.242188 -2.71875 169.242188 -3.6875 168.660156 -4.851562 Z M 168.660156 -4.851562 "/></g></g></g></svg>